<svg width="48" height="48" viewBox="0 0 48 48" fill="none" xmlns="http://www.w3.org/2000/svg">
<path fill-rule="evenodd" clip-rule="evenodd" d="M48 24C48 10.7452 37.2548 0 24 0C10.7452 0 0 10.7452 0 24C0 37.2548 10.7452 48 24 48C37.2548 48 48 37.2548 48 24ZM25.5061 33.4142C25.3108 33.6095 25.0852 33.7559 24.8445 33.8536C24.2426 34.0976 23.5459 34.0366 22.9914 33.6705C22.8805 33.5973 22.7753 33.5118 22.6777 33.4142L20.5564 31.2929L8.53554 19.2721L12.0711 15.7365L24.0919 27.7574L36.1127 15.7365L39.6482 19.2721L27.6274 31.2929L25.5061 33.4142Z" fill="#020000"/>
</svg>
