<svg width="48" height="48" viewBox="0 0 48 48" fill="none" xmlns="http://www.w3.org/2000/svg">
<path fill-rule="evenodd" clip-rule="evenodd" d="M24 45C12.402 45 3 35.598 3 24C3 12.402 12.402 3 24 3C35.598 3 45 12.402 45 24C45 35.598 35.598 45 24 45ZM24 48C10.7452 48 0 37.2548 0 24C0 10.7452 10.7452 0 24 0C37.2548 0 48 10.7452 48 24C48 37.2548 37.2548 48 24 48ZM22.4939 14.5858C23.2749 13.8047 24.5413 13.8047 25.3223 14.5858L27.4436 16.7071L39.4645 28.7279L35.9289 32.2635L23.9081 20.2426L11.8873 32.2635L8.35176 28.7279L20.3726 16.7071L22.4939 14.5858Z" fill="black"/>
<path fill-rule="evenodd" clip-rule="evenodd" d="M24 45C12.402 45 3 35.598 3 24C3 12.402 12.402 3 24 3C35.598 3 45 12.402 45 24C45 35.598 35.598 45 24 45ZM24 48C10.7452 48 0 37.2548 0 24C0 10.7452 10.7452 0 24 0C37.2548 0 48 10.7452 48 24C48 37.2548 37.2548 48 24 48ZM22.4939 14.5858C23.2749 13.8047 24.5413 13.8047 25.3223 14.5858L27.4436 16.7071L39.4645 28.7279L35.9289 32.2635L23.9081 20.2426L11.8873 32.2635L8.35176 28.7279L20.3726 16.7071L22.4939 14.5858Z" fill="black" fill-opacity="0.2"/>
<path fill-rule="evenodd" clip-rule="evenodd" d="M24 45C12.402 45 3 35.598 3 24C3 12.402 12.402 3 24 3C35.598 3 45 12.402 45 24C45 35.598 35.598 45 24 45ZM24 48C10.7452 48 0 37.2548 0 24C0 10.7452 10.7452 0 24 0C37.2548 0 48 10.7452 48 24C48 37.2548 37.2548 48 24 48ZM22.4939 14.5858C23.2749 13.8047 24.5413 13.8047 25.3223 14.5858L27.4436 16.7071L39.4645 28.7279L35.9289 32.2635L23.9081 20.2426L11.8873 32.2635L8.35176 28.7279L20.3726 16.7071L22.4939 14.5858Z" fill="black"/>
</svg>
