<svg width="48" height="48" viewBox="0 0 48 48" fill="none" xmlns="http://www.w3.org/2000/svg">
<path fill-rule="evenodd" clip-rule="evenodd" d="M12.6863 14.1005C12.2958 14.491 12.2958 15.1242 12.6863 15.5147L21.1716 24L12.6863 32.4853C12.2958 32.8758 12.2958 33.509 12.6863 33.8995L14.1005 35.3137C14.491 35.7042 15.1242 35.7042 15.5147 35.3137L24 26.8284L32.4853 35.3137C32.8758 35.7042 33.509 35.7042 33.8995 35.3137L35.3137 33.8995C35.7042 33.509 35.7042 32.8758 35.3137 32.4853L26.8284 24L35.3137 15.5147C35.7042 15.1242 35.7042 14.491 35.3137 14.1005L33.8995 12.6863C33.509 12.2958 32.8758 12.2958 32.4853 12.6863L24 21.1716L15.5147 12.6863C15.1242 12.2958 14.491 12.2958 14.1005 12.6863L12.6863 14.1005Z" fill="black"/>
</svg>
